<svg id="ball-covered" width="100%" height="100%" viewBox="0 0 512 512" version="1.1" xmlns="http://www.w3.org/2000/svg" xmlns:xlink="http://www.w3.org/1999/xlink" xml:space="preserve" xmlns:serif="http://www.serif.com/" style="fill-rule:evenodd;clip-rule:evenodd;stroke-linejoin:round;stroke-miterlimit:2;"><g id="Small-ball" serif:id="Small ball"><g><path d="M256,167.262c95.133,-0 172.368,77.236 172.368,172.369c0,95.133 -77.235,172.369 -172.368,172.369c-95.133,0 -172.368,-77.236 -172.368,-172.369c-0,-95.133 77.235,-172.369 172.368,-172.369Zm0,16.672c85.931,0 155.696,69.766 155.696,155.697c-0,85.931 -69.765,155.696 -155.696,155.696c-85.931,0 -155.696,-69.765 -155.696,-155.696c0,-85.931 69.765,-155.697 155.696,-155.697Zm99.417,241.596c-3.294,-3.074 -8.444,-2.916 -11.545,0.342c-0.03,0.032 -0.065,0.068 -0.09,0.095c-3.093,3.314 -2.913,8.508 0.4,11.602c1.582,1.476 3.593,2.207 5.598,2.207c2.171,0 4.336,-0.855 5.948,-2.548c0.029,-0.032 0.065,-0.069 0.089,-0.095c3.093,-3.316 2.913,-8.509 -0.4,-11.603Zm31.912,-94.107c-4.533,-0 -8.208,3.674 -8.208,8.207c-0,24.854 -7.368,48.8 -21.306,69.25c-2.553,3.746 -1.586,8.852 2.16,11.406c1.415,0.964 3.023,1.426 4.615,1.426c2.622,0 5.201,-1.255 6.789,-3.586c15.805,-23.187 24.158,-50.331 24.158,-78.496c0,-4.533 -3.675,-8.207 -8.208,-8.207Zm-216.658,-31.227c-10.881,-10.879 -28.586,-10.879 -39.467,0.001c-10.881,10.882 -10.881,28.586 -0,39.468c1.603,1.603 3.703,2.404 5.803,2.404c2.101,-0 4.202,-0.801 5.804,-2.404c3.205,-3.206 3.205,-8.403 0,-11.609c-4.481,-4.48 -4.481,-11.77 0,-16.25c4.48,-4.481 11.771,-4.481 16.251,-0c3.205,3.204 8.403,3.204 11.608,-0c3.206,-3.206 3.206,-8.403 0.001,-11.61Zm78.797,-19.698c-10.881,-10.88 -28.586,-10.88 -39.467,0.001c-10.881,10.881 -10.881,28.586 -0,39.467c1.603,1.603 3.704,2.404 5.803,2.404c2.101,0 4.202,-0.801 5.804,-2.404c3.206,-3.205 3.206,-8.403 0,-11.608c-4.481,-4.48 -4.481,-11.77 0,-16.251c4.48,-4.481 11.771,-4.481 16.251,-0c3.205,3.204 8.402,3.204 11.608,-0c3.206,-3.206 3.206,-8.404 0.001,-11.609Zm-52.531,-39.399c-10.881,-10.88 -28.586,-10.88 -39.467,0.001c-10.881,10.881 -10.881,28.586 -0,39.467c1.603,1.603 3.703,2.404 5.803,2.404c2.101,0 4.202,-0.801 5.804,-2.404c3.205,-3.205 3.205,-8.403 0,-11.608c-4.481,-4.48 -4.481,-11.77 0,-16.251c4.48,-4.481 11.771,-4.481 16.251,-0c3.205,3.204 8.402,3.204 11.608,-0c3.206,-3.205 3.206,-8.403 0.001,-11.609Zm59.098,-32.833c-10.882,-10.879 -28.586,-10.879 -39.468,0.001c-10.88,10.881 -10.88,28.586 0,39.467c1.603,1.604 3.704,2.405 5.804,2.405c2.1,-0 4.201,-0.801 5.804,-2.405c3.205,-3.205 3.205,-8.403 -0,-11.608c-4.481,-4.48 -4.481,-11.77 -0,-16.251c4.48,-4.48 11.771,-4.48 16.25,0c3.206,3.205 8.403,3.205 11.609,0c3.206,-3.205 3.206,-8.403 0.001,-11.609Z"/></g></g><path d="M256,72.155l-190.341,131.021c-14.823,10.204 -35.141,6.453 -45.344,-8.37c-10.204,-14.823 -6.453,-35.141 8.37,-45.344c-0,-0 208.828,-143.747 208.828,-143.747c11.133,-7.664 25.841,-7.664 36.974,-0c0,-0 208.828,143.747 208.828,143.747c14.823,10.203 18.574,30.521 8.37,45.344c-10.203,14.823 -30.521,18.574 -45.344,8.37l-190.341,-131.021Zm5.67,-20.377c-3.415,-2.351 -7.925,-2.351 -11.34,-0l-196.011,134.924c-5.731,3.945 -13.586,2.495 -17.53,-3.236c-3.945,-5.73 -2.495,-13.585 3.236,-17.53c-0,0 208.828,-143.747 208.828,-143.747c4.304,-2.963 9.99,-2.963 14.294,0c0,0 208.828,143.747 208.828,143.747c5.731,3.945 7.181,11.8 3.236,17.53c-3.944,5.731 -11.799,7.181 -17.53,3.236c0,0 -196.011,-134.924 -196.011,-134.924Z"/></svg>