<svg id="ball-grass" width="100%" height="100%" viewBox="0 0 512 512" version="1.1" xmlns="http://www.w3.org/2000/svg" xmlns:xlink="http://www.w3.org/1999/xlink" xml:space="preserve" xmlns:serif="http://www.serif.com/" style="fill-rule:evenodd;clip-rule:evenodd;stroke-linejoin:round;stroke-miterlimit:2;"><g id="Small-ball" serif:id="Small ball"><g><path d="M195.426,383.473c3.425,1.176 6.895,2.256 10.404,3.229c1.96,7.168 3.709,14.478 5.205,21.916c-7.208,-1.6 -14.275,-3.577 -21.168,-5.91c1.587,-6.196 3.424,-12.614 5.559,-19.235Zm-63.363,-11.239c-50.285,-37.73 -82.832,-97.827 -82.832,-165.464c-0,-114.12 92.65,-206.77 206.769,-206.77c114.118,0 206.768,92.65 206.768,206.77c0,76.642 -41.789,143.601 -103.806,179.314c-5.5,-5.167 -11.405,-9.786 -17.545,-13.213c60.168,-31.022 101.351,-93.79 101.351,-166.101c0,-103.081 -83.688,-186.77 -186.768,-186.77c-103.081,0 -186.769,83.689 -186.769,186.77c0,59.56 27.94,112.646 71.422,146.858c-3.05,6.121 -5.917,12.325 -8.59,18.606Zm243.195,-62.422c-3.952,-3.688 -10.13,-3.498 -13.85,0.41c-0.035,0.038 -0.078,0.082 -0.107,0.114c-3.711,3.976 -3.495,10.206 0.479,13.917c1.898,1.771 4.31,2.648 6.716,2.648c2.604,0 5.201,-1.026 7.134,-3.057c0.035,-0.038 0.078,-0.082 0.107,-0.114c3.711,-3.977 3.495,-10.207 -0.479,-13.918Zm38.28,-112.889c-5.437,0 -9.846,4.408 -9.846,9.846c0,29.814 -8.838,58.539 -25.558,83.07c-3.063,4.494 -1.903,10.619 2.591,13.682c1.698,1.157 3.627,1.711 5.536,1.711c3.146,0 6.239,-1.505 8.144,-4.302c18.959,-27.814 28.979,-60.375 28.979,-94.162c0.001,-5.437 -4.408,-9.845 -9.846,-9.845Zm-259.897,-37.458c-13.053,-13.051 -34.291,-13.051 -47.344,0.001c-13.052,13.053 -13.052,34.291 -0,47.344c1.923,1.923 4.443,2.884 6.962,2.884c2.52,0 5.04,-0.961 6.962,-2.884c3.845,-3.845 3.845,-10.079 -0,-13.925c-5.375,-5.374 -5.375,-14.119 -0,-19.494c5.374,-5.375 14.12,-5.375 19.494,0c3.845,3.844 10.08,3.844 13.925,0c3.846,-3.845 3.846,-10.08 0.001,-13.926Zm94.523,-23.63c-13.053,-13.051 -34.291,-13.051 -47.344,0.001c-13.052,13.053 -13.052,34.291 -0,47.344c1.923,1.923 4.443,2.884 6.962,2.884c2.52,0 5.04,-0.961 6.962,-2.884c3.845,-3.845 3.845,-10.08 -0,-13.925c-5.375,-5.374 -5.375,-14.119 -0,-19.494c5.374,-5.375 14.12,-5.375 19.494,0c3.845,3.844 10.079,3.844 13.925,0c3.846,-3.846 3.846,-10.081 0.001,-13.926Zm-63.015,-47.262c-13.053,-13.051 -34.291,-13.051 -47.344,0.001c-13.052,13.053 -13.052,34.291 -0,47.344c1.923,1.923 4.443,2.884 6.962,2.884c2.52,0 5.04,-0.961 6.962,-2.884c3.845,-3.845 3.845,-10.08 -0,-13.925c-5.375,-5.374 -5.375,-14.119 -0,-19.494c5.374,-5.375 14.12,-5.375 19.494,0c3.845,3.844 10.079,3.844 13.925,0c3.846,-3.845 3.846,-10.08 0.001,-13.926Zm70.892,-39.385c-13.053,-13.051 -34.291,-13.051 -47.344,0.001c-13.052,13.053 -13.052,34.291 -0,47.344c1.923,1.923 4.443,2.884 6.962,2.884c2.519,0 5.04,-0.961 6.962,-2.884c3.845,-3.845 3.845,-10.08 -0,-13.925c-5.375,-5.374 -5.375,-14.119 -0,-19.494c5.374,-5.375 14.12,-5.375 19.494,0c3.845,3.844 10.08,3.844 13.925,0c3.846,-3.845 3.846,-10.08 0.001,-13.926Z"/></g></g><g><path d="M379.831,512c-3.799,0.015 -6.976,-2.88 -7.315,-6.663c-10.972,-121.913 122.337,-212.225 128.006,-216.007c3.322,-2.299 7.878,-1.469 10.177,1.853c2.299,3.321 1.469,7.878 -1.853,10.176c-0.07,0.049 -0.141,0.096 -0.213,0.142c-5.384,3.591 -131.758,89.179 -121.561,202.527c0.359,4.023 -2.611,7.576 -6.634,7.936c-0.168,0.021 -0.387,0.036 -0.607,0.036Z" style="fill-rule:nonzero;"/><path d="M428.685,510.39c-3.66,-0.004 -6.754,-2.713 -7.241,-6.342c-16.173,-120.157 74.214,-210.097 78.068,-213.827c2.855,-2.858 7.486,-2.861 10.344,-0.006c0.002,0.002 0.004,0.004 0.007,0.006c2.835,2.839 2.835,7.438 -0,10.277l-0.074,0.073c-3.701,3.621 -89.063,88.551 -73.878,201.517c0.541,4.003 -2.266,7.687 -6.269,8.229c-0.002,-0 -0.004,0.001 -0.006,0.001c-0.314,0.043 -0.632,0.068 -0.951,0.072Z" style="fill-rule:nonzero;"/><path d="M388.579,444.105c-2.664,0.002 -5.118,-1.443 -6.407,-3.774c-0.263,-0.468 -26.111,-47.554 -53.175,-57.781c-3.779,-1.428 -5.685,-5.649 -4.257,-9.428c1.429,-3.779 5.65,-5.685 9.428,-4.257c32.097,12.127 59.642,62.279 60.804,64.386c1.956,3.535 0.675,7.985 -2.86,9.941c-1.082,0.598 -2.297,0.912 -3.533,0.913Z" style="fill-rule:nonzero;"/><path d="M359.987,511.853l-0.571,0c-4.027,-0.311 -7.04,-3.829 -6.729,-7.856c5.808,-75.692 -30.817,-109.719 -31.19,-110.033c-3.063,-2.635 -0.051,-6.91 2.584,-9.973c2.634,-3.063 3.894,-3.752 6.957,-1.117c0.091,0.078 0.18,0.16 0.268,0.242c1.726,1.566 42.329,39.243 35.965,122.015c-0.307,3.796 -3.476,6.719 -7.284,6.722Z" style="fill-rule:nonzero;"/><path d="M251.467,512l-0.255,-0c-4.038,-0.139 -7.198,-3.525 -7.059,-7.561l-0,-0.001c1.163,-36.014 7.976,-71.621 20.188,-105.521c30.724,-81.718 88.489,-150.461 163.693,-194.802c3.592,-1.848 8.003,-0.434 9.85,3.158c1.808,3.514 0.498,7.829 -2.96,9.745c-1.104,0.593 -111.357,60.712 -156.824,186.866c-11.696,32.463 -18.218,66.563 -19.326,101.051c-0.133,3.938 -3.365,7.063 -7.307,7.065Z" style="fill-rule:nonzero;"/><path d="M317.284,511.853c-3.754,-0.004 -6.895,-2.848 -7.271,-6.583c-2.461,-39.427 1.031,-78.999 10.358,-117.385c17.496,-74.806 53.265,-136.314 106.317,-182.821c0.498,-0.437 1.054,-0.804 1.653,-1.09c3.596,-1.84 8.003,-0.418 9.844,3.179c1.451,2.834 0.901,6.281 -1.359,8.525c-0.289,0.285 -0.599,0.547 -0.929,0.783c-50.47,44.407 -84.542,103.201 -101.277,174.767c-8.847,36.832 -12.231,74.763 -10.044,112.579c0.394,4.021 -2.546,7.6 -6.566,7.993c-0.006,0.001 -0.011,0.001 -0.017,0.002c-0.226,0.051 -0.467,0.051 -0.709,0.051Z" style="fill-rule:nonzero;"/><path d="M221.837,511.853c-0.333,0.001 -0.665,-0.021 -0.995,-0.066c-4.001,-0.545 -6.803,-4.228 -6.262,-8.229c21.219,-156.802 -107.458,-292.503 -108.768,-293.835c-2.829,-2.883 -2.785,-7.514 0.097,-10.344c2.418,-2.373 6.15,-2.775 9.017,-0.972c128.202,80.717 161.93,196.163 163.298,201.042c1.097,3.887 -1.166,7.929 -5.054,9.026c-3.888,1.097 -7.93,-1.166 -9.027,-5.054c-0.278,-0.987 -25.221,-85.866 -111.145,-158.968c38.452,53.791 91.14,150.409 76.072,261.131c-0.519,3.597 -3.6,6.267 -7.233,6.269Z" style="fill-rule:nonzero;"/><path d="M221.251,314.264c-4.039,-0.005 -7.31,-3.284 -7.305,-7.323c0.002,-1.249 0.323,-2.478 0.934,-3.568c12.918,-22.778 27.551,-44.542 43.771,-65.1c-19.478,13.621 -37.419,29.318 -53.506,46.813c-2.735,2.973 -7.363,3.167 -10.336,0.432c-2.973,-2.736 -3.167,-7.363 -0.431,-10.336c26.482,-29.63 58.447,-53.857 94.131,-71.346c3.709,-1.6 8.013,0.111 9.613,3.821c1.124,2.609 0.637,5.635 -1.252,7.758c-26.433,29.143 -49.644,61.051 -69.233,95.171c-1.31,2.287 -3.75,3.693 -6.386,3.678Z" style="fill-rule:nonzero;"/><path d="M110.933,511.992l-0.286,-0c-4.036,-0.155 -7.184,-3.553 -7.029,-7.589l0,-0.003c1.486,-74.238 25.13,-146.184 69.677,-205.589c2.446,-3.216 7.035,-3.84 10.251,-1.394c3.216,2.446 3.84,7.035 1.394,10.251c-42.712,57.025 -65.313,126.075 -66.692,197.309c-0.162,3.922 -3.39,7.019 -7.315,7.015Z" style="fill-rule:nonzero;"/><path d="M175.704,511.992c-3.4,-0.004 -6.35,-2.349 -7.117,-5.662c-0.622,-2.692 -14.462,-66.122 25.923,-160.313c1.645,-3.69 5.969,-5.348 9.659,-3.703c3.615,1.612 5.292,5.807 3.784,9.467c-38.35,89.443 -25.25,150.65 -25.096,151.294c0.91,3.936 -1.543,7.865 -5.479,8.774c-0.005,0.001 -0.009,0.002 -0.015,0.003c-0.546,0.111 -1.103,0.158 -1.659,0.14Z" style="fill-rule:nonzero;"/><path d="M76.217,512c-4.039,0.004 -7.317,-3.267 -7.322,-7.307c-0,-0.427 0.036,-0.853 0.11,-1.273c21.944,-125.007 -65.735,-206.542 -66.621,-207.355c-2.984,-2.722 -3.196,-7.349 -0.473,-10.333c2.139,-2.344 5.544,-3.042 8.432,-1.729c51.809,25.016 94.455,63.337 124.164,112.604c1.969,3.529 0.705,7.986 -2.824,9.955c-3.529,1.97 -7.985,0.706 -9.955,-2.823c-21.288,-34.602 -48.733,-63.199 -82.091,-86.387c39.547,54.336 55.334,122.403 43.741,188.599c-0.611,3.482 -3.626,6.028 -7.161,6.049Z" style="fill-rule:nonzero;"/><path d="M446.182,511.992l-394.988,-0c-4.04,-0 -7.315,-3.275 -7.315,-7.315c0,-4.04 3.275,-7.315 7.315,-7.315l394.988,0c4.04,0 7.315,3.275 7.315,7.315c-0,4.041 -3.275,7.315 -7.315,7.315Z" style="fill-rule:nonzero;"/></g></svg>