<svg id="ball-tee" version="1.1" xmlns="http://www.w3.org/2000/svg" xmlns:xlink="http://www.w3.org/1999/xlink" x="0px" y="0px"
	 viewBox="0 0 512 512" style="enable-background:new 0 0 512 512;" xml:space="preserve">
<g>
	<g>
		<path d="M375.258,309.812c-3.952-3.688-10.13-3.498-13.85,0.41c-0.035,0.038-0.078,0.082-0.107,0.114
			c-3.711,3.976-3.495,10.206,0.479,13.917c1.898,1.771,4.31,2.648,6.716,2.648c2.604,0,5.201-1.026,7.134-3.057
			c0.035-0.038,0.078-0.082,0.107-0.114C379.448,319.753,379.232,313.523,375.258,309.812z"/>
	</g>
</g>
<g>
	<g>
		<path d="M413.538,196.923c-5.437,0-9.846,4.408-9.846,9.846c0,29.814-8.838,58.539-25.558,83.07
			c-3.063,4.494-1.903,10.619,2.591,13.682c1.698,1.157,3.627,1.711,5.536,1.711c3.146,0,6.239-1.505,8.144-4.302
			c18.959-27.814,28.979-60.375,28.979-94.162C423.385,201.331,418.976,196.923,413.538,196.923z"/>
	</g>
</g>
<g>
	<g>
		<path d="M256.041,49.188c-13.053-13.051-34.291-13.051-47.344,0.001c-13.052,13.053-13.052,34.291,0,47.344
			c1.923,1.923,4.443,2.884,6.962,2.884s5.04-0.961,6.962-2.884c3.845-3.845,3.845-10.08,0-13.925
			c-5.375-5.374-5.375-14.119,0-19.494c5.374-5.375,14.12-5.375,19.494,0c3.845,3.844,10.08,3.844,13.925,0
			C259.886,59.269,259.886,53.034,256.041,49.188z"/>
	</g>
</g>
<g>
	<g>
		<path d="M153.641,159.465c-13.053-13.051-34.291-13.051-47.344,0.001c-13.052,13.053-13.052,34.291,0,47.344
			c1.923,1.923,4.443,2.884,6.962,2.884c2.52,0,5.04-0.961,6.962-2.884c3.845-3.845,3.845-10.079,0-13.925
			c-5.375-5.374-5.375-14.119,0-19.494c5.374-5.375,14.12-5.375,19.494,0c3.845,3.844,10.08,3.844,13.925,0
			C157.486,169.546,157.486,163.311,153.641,159.465z"/>
	</g>
</g>
<g>
	<g>
		<path d="M248.164,135.835c-13.053-13.051-34.291-13.051-47.344,0.001c-13.052,13.053-13.052,34.291,0,47.344
			c1.923,1.923,4.443,2.884,6.962,2.884c2.52,0,5.04-0.961,6.962-2.884c3.845-3.845,3.845-10.08,0-13.925
			c-5.375-5.374-5.375-14.119,0-19.494c5.374-5.375,14.12-5.375,19.494,0c3.845,3.844,10.079,3.844,13.925,0
			C252.009,145.915,252.009,139.68,248.164,135.835z"/>
	</g>
</g>
<g>
	<g>
		<path d="M185.149,88.573c-13.053-13.051-34.291-13.051-47.344,0.001c-13.052,13.053-13.052,34.291,0,47.344
			c1.923,1.923,4.443,2.884,6.962,2.884c2.52,0,5.04-0.961,6.962-2.884c3.845-3.845,3.845-10.08,0-13.925
			c-5.375-5.374-5.375-14.119,0-19.494c5.374-5.375,14.12-5.375,19.494,0c3.845,3.844,10.079,3.844,13.925,0
			C188.994,98.654,188.994,92.419,185.149,88.573z"/>
	</g>
</g>
<g>
	<g>
		<path d="M256,0C141.987,0,49.231,92.757,49.231,206.769c0,35.804,9.301,71.087,26.898,102.036
			c13.421,23.606,31.481,44.4,52.856,61.079c-0.624,1.293-0.985,2.738-0.985,4.27v21.694c0,3.344,0.354,6.605,1.018,9.753
			c0.021,0.103,0.047,0.205,0.071,0.308c4.625,21.223,23.55,37.168,46.139,37.168c9.857,0,19.018,5.316,23.908,13.874l28.621,50.087
			c1.754,3.068,5.016,4.961,8.549,4.961h39.385c3.534,0,6.796-1.893,8.549-4.961l28.621-50.087
			c4.891-8.558,14.051-13.874,23.908-13.874c26.043,0,47.23-21.187,47.23-47.229v-21.694c0-1.532-0.36-2.977-0.985-4.269
			c21.375-16.678,39.435-37.474,52.856-61.08c17.597-30.949,26.898-66.232,26.898-102.036C462.769,92.757,370.013,0,256,0z
			 M364.308,395.848c0,15.184-12.353,27.537-27.537,27.537c-16.906,0-32.619,9.118-41.006,23.796l-25.787,45.127h-27.956
			l-25.786-45.127c-8.388-14.678-24.1-23.796-41.006-23.796c-8.453,0-16.026-3.832-21.081-9.846h42.775
			c5.438,0,9.846-4.408,9.846-9.846s-4.408-9.846-9.846-9.846h-49.231V384h216.615V395.848z M356.913,364.308H155.087
			c-54.007-34.638-86.164-93.321-86.164-157.538c0-103.155,83.922-187.077,187.077-187.077s187.077,83.922,187.077,187.077
			C443.077,270.987,410.92,329.67,356.913,364.308z"/>
	</g>
</g>
<g>
	<g>
		<path d="M236.111,401.772c-0.118-0.63-0.315-1.25-0.561-1.851c-0.246-0.591-0.551-1.162-0.906-1.694
			c-0.354-0.542-0.768-1.044-1.221-1.497c-0.453-0.453-0.955-0.866-1.497-1.221c-0.532-0.354-1.103-0.66-1.703-0.906
			c-0.591-0.246-1.211-0.443-1.841-0.561c-1.27-0.256-2.57-0.256-3.84,0c-0.63,0.118-1.25,0.315-1.841,0.561
			c-0.601,0.246-1.172,0.551-1.703,0.906c-0.542,0.354-1.044,0.768-1.497,1.221c-0.453,0.453-0.866,0.955-1.221,1.497
			c-0.354,0.532-0.66,1.103-0.906,1.694c-0.246,0.601-0.443,1.221-0.561,1.851c-0.128,0.63-0.197,1.28-0.197,1.92
			s0.069,1.29,0.197,1.93c0.118,0.62,0.315,1.241,0.561,1.841c0.246,0.591,0.551,1.162,0.906,1.694
			c0.354,0.542,0.768,1.044,1.221,1.497c0.453,0.453,0.955,0.866,1.497,1.221c0.532,0.354,1.103,0.66,1.703,0.906
			c0.591,0.246,1.211,0.443,1.841,0.561c0.63,0.128,1.28,0.197,1.92,0.197s1.29-0.069,1.92-0.197c0.63-0.118,1.25-0.315,1.841-0.561
			c0.601-0.246,1.172-0.551,1.703-0.906c0.542-0.354,1.044-0.768,1.497-1.221c0.453-0.453,0.866-0.955,1.221-1.497
			c0.354-0.532,0.66-1.103,0.906-1.694c0.246-0.601,0.443-1.221,0.561-1.841c0.128-0.64,0.197-1.29,0.197-1.93
			C236.308,403.052,236.239,402.402,236.111,401.772z"/>
	</g>
</g>
<g>
</g>
<g>
</g>
<g>
</g>
<g>
</g>
<g>
</g>
<g>
</g>
<g>
</g>
<g>
</g>
<g>
</g>
<g>
</g>
<g>
</g>
<g>
</g>
<g>
</g>
<g>
</g>
<g>
</g>
</svg>
