<svg id="bunker-practice" enable-background="new 0 0 512 512" viewBox="0 0 512 512" xmlns="http://www.w3.org/2000/svg"><path d="m386.725 340.767c-3.843-3.846-10.101-3.821-13.947.023-3.845 3.845-3.845 10.079 0 13.925 1.923 1.922 4.442 2.884 6.962 2.884s5.039-.962 6.962-2.884l.047-.047c3.844-3.846 3.82-10.057-.024-13.901z"/><path d="m429.281 216.603c-5.437 0-9.846 4.409-9.846 9.846 0 34.131-10.41 66.824-30.106 94.545-3.149 4.431-2.108 10.578 2.325 13.729 1.731 1.229 3.722 1.82 5.694 1.82 3.081 0 6.115-1.442 8.035-4.144 22.076-31.073 33.744-67.709 33.744-105.95-.001-5.438-4.409-9.846-9.846-9.846z"/><path d="m255.35 53.815c-13.974-13.973-36.709-13.971-50.682 0-6.769 6.769-10.497 15.769-10.497 25.34 0 9.574 3.728 18.573 10.497 25.341 1.922 1.925 4.441 2.886 6.961 2.886s5.04-.962 6.962-2.884c3.845-3.845 3.845-10.079 0-13.925-3.05-3.05-4.729-7.104-4.729-11.418 0-4.312 1.68-8.367 4.73-11.417 3.049-3.05 7.104-4.73 11.417-4.73s8.368 1.68 11.417 4.73c3.845 3.844 10.079 3.844 13.924 0 3.844-3.843 3.844-10.078 0-13.923z"/><path d="m142.716 175.113c-6.769-6.769-15.769-10.496-25.341-10.496s-18.573 3.727-25.341 10.496c-13.973 13.973-13.973 36.709 0 50.683 1.923 1.922 4.442 2.884 6.962 2.884s5.04-.962 6.962-2.884c3.846-3.844 3.846-10.078.001-13.924-3.05-3.05-4.73-7.105-4.73-11.418 0-4.312 1.68-8.367 4.73-11.417 3.05-3.051 7.105-4.73 11.418-4.73 4.312 0 8.368 1.679 11.417 4.73 3.846 3.844 10.08 3.845 13.924 0 3.843-3.845 3.844-10.079-.002-13.924z"/><path d="m246.685 149.119c-13.973-13.972-36.708-13.972-50.683 0-13.973 13.973-13.973 36.709 0 50.683 1.923 1.924 4.443 2.885 6.963 2.885s5.04-.962 6.962-2.884c3.845-3.845 3.845-10.079 0-13.924-3.05-3.05-4.73-7.105-4.73-11.418 0-4.312 1.68-8.367 4.729-11.417 6.297-6.296 16.541-6.295 22.836 0 3.845 3.844 10.079 3.844 13.924 0 3.843-3.845 3.843-10.079-.001-13.925z"/><path d="m177.373 97.135c-13.974-13.972-36.709-13.972-50.682 0-6.769 6.769-10.497 15.769-10.497 25.34 0 9.574 3.728 18.573 10.497 25.341 1.922 1.925 4.441 2.886 6.961 2.886s5.04-.962 6.962-2.884c3.845-3.845 3.845-10.079 0-13.924-3.05-3.05-4.729-7.105-4.729-11.418 0-4.312 1.68-8.367 4.73-11.417 3.049-3.05 7.104-4.73 11.417-4.73s8.368 1.68 11.417 4.73c3.845 3.844 10.079 3.844 13.925 0 3.844-3.844 3.844-10.078-.001-13.924z"/><path d="m474.907 379.988-7.767-5.178c-9.645-6.43-20.609-9.849-31.657-10.261 30.465-39.387 46.964-87.396 46.964-138.103 0-60.487-23.554-117.352-66.324-160.123-42.771-42.771-99.636-66.323-160.122-66.323s-117.353 23.554-160.123 66.324c-42.77 42.771-66.324 99.636-66.324 160.123 0 50.706 16.499 98.716 46.964 138.103-11.049.411-22.013 3.83-31.657 10.26l-7.767 5.177c-4.525 3.016-5.748 9.129-2.731 13.654 3.016 4.524 9.127 5.746 13.653 2.731l7.768-5.179c13.971-9.315 32.026-9.315 45.998.002l2.152 1.433c20.432 13.622 46.784 13.73 67.314.338.174-.113.352-.221.525-.336l2.157-1.437c3.596-2.397 7.464-4.166 11.461-5.329 8.858-2.578 18.352-2.117 26.985 1.365 2.609 1.052 5.144 2.361 7.552 3.967l2.152 1.434c20.607 13.737 47.237 13.738 67.841.001l2.154-1.436c13.971-9.314 32.025-9.315 45.998.001l2.153 1.435c10.304 6.87 22.111 10.305 33.921 10.304 11.808-.001 23.618-3.435 33.92-10.303l2.156-1.437c.002-.001.004-.002.006-.004 13.971-9.31 32.022-9.309 45.989.005l7.767 5.178c4.523 3.015 10.636 1.794 13.653-2.73 3.015-4.528 1.793-10.64-2.731-13.656zm-73.646-6.433c-.149.092-.294.19-.442.283-.532.329-1.038.652-1.519.973l-2.154 1.436c-13.971 9.314-32.025 9.315-45.998-.001l-2.153-1.435c-10.304-6.87-22.111-10.304-33.921-10.304-3.627 0-7.254.328-10.837.976-8.083 1.461-15.945 4.568-23.083 9.328l-2.154 1.436c-7.844 5.229-16.974 7.521-25.947 6.879-5.838-.418-11.605-2.093-16.912-4.998-.156-.086-.318-.157-.475-.245-.08-.045-.156-.099-.236-.145-.821-.471-1.634-.962-2.43-1.493l-2.152-1.433c-7.084-4.722-14.879-7.821-22.896-9.297-.036-.007-.074-.012-.11-.019-.692-.126-1.386-.242-2.081-.345-14.643-2.146-29.874 1.073-42.751 9.657l-2.157 1.437c-1.262.841-2.567 1.58-3.889 2.269-10.097 5.262-21.768 6.095-32.37 2.5-3.384-1.148-6.663-2.72-9.739-4.77l-2.152-1.434c-.002-.001-.004-.002-.005-.003-.492-.328-1.007-.657-1.55-.992-.136-.085-.27-.175-.406-.259-39.667-39.159-61.498-91.356-61.498-147.109 0-114.005 92.75-206.756 206.756-206.756 114.005 0 206.756 92.751 206.756 206.756.001 55.752-21.831 107.949-61.495 147.108z"/><path d="m474.908 434.906-7.768-5.179c-20.607-13.737-47.236-13.735-67.844.001l-2.152 1.435c-13.971 9.313-32.027 9.312-45.995.001l-2.155-1.437c-20.607-13.737-47.236-13.735-67.844.001l-2.152 1.435c-13.971 9.313-32.027 9.313-45.996 0l-2.154-1.437c-20.606-13.737-47.236-13.737-67.841 0l-2.154 1.437c-13.971 9.313-32.026 9.313-45.996 0l-2.154-1.437c-20.606-13.737-47.235-13.737-67.842 0l-7.767 5.179c-4.524 3.016-5.746 9.129-2.73 13.653 3.017 4.525 9.13 5.748 13.654 2.73l7.767-5.179c13.97-9.315 32.025-9.315 45.996 0l2.154 1.436c20.606 13.737 47.236 13.737 67.841 0l2.154-1.436c13.97-9.315 32.025-9.315 45.996 0l2.154 1.436c20.607 13.737 47.236 13.737 67.844-.001l2.152-1.435c13.97-9.315 32.026-9.314 45.995-.001l2.155 1.437c10.303 6.869 22.111 10.303 33.92 10.303 11.81 0 23.619-3.435 33.924-10.304l2.152-1.435c13.97-9.315 32.026-9.315 45.996 0l7.767 5.179c4.525 3.015 10.637 1.795 13.654-2.729 3.015-4.525 1.793-10.638-2.731-13.653z"/><path d="m474.9 489.056-7.768-5.179c-20.608-13.738-47.236-13.736-67.841 0l-2.154 1.436c-13.97 9.313-32.026 9.315-45.996 0l-2.154-1.436c-20.608-13.738-47.236-13.736-67.841 0l-2.154 1.436c-13.971 9.313-32.026 9.313-45.995 0l-2.155-1.436c-20.607-13.737-47.236-13.737-67.843 0l-2.153 1.436c-13.971 9.313-32.026 9.314-45.995 0l-2.155-1.436c-20.607-13.737-47.236-13.737-67.842 0l-7.767 5.179c-4.524 3.016-5.746 9.129-2.73 13.653s9.129 5.747 13.654 2.73l7.767-5.179c13.97-9.314 32.025-9.315 45.995 0l2.155 1.436c20.606 13.738 47.235 13.736 67.843 0l2.153-1.436c13.97-9.314 32.025-9.315 45.995 0l2.155 1.436c20.605 13.736 47.234 13.737 67.841 0l2.154-1.436c13.97-9.313 32.026-9.315 45.996 0l2.154 1.436c10.303 6.869 22.112 10.303 33.92 10.303 11.809 0 23.617-3.434 33.921-10.303l2.154-1.436c13.97-9.313 32.026-9.315 45.996 0l7.768 5.179c4.523 3.016 10.637 1.795 13.653-2.73 3.016-4.524 1.793-10.637-2.731-13.653z"/></svg>
