<svg id="caddies" viewBox="0 0 496 496" xmlns="http://www.w3.org/2000/svg"><path d="m216 176c0 4.417969-3.582031 8-8 8s-8-3.582031-8-8 3.582031-8 8-8 8 3.582031 8 8zm0 0"/><path d="m136 176c0 4.417969-3.582031 8-8 8s-8-3.582031-8-8 3.582031-8 8-8 8 3.582031 8 8zm0 0"/><path d="m168 248c17.648438 0 32-14.351562 32-32h-16c0 8.824219-7.175781 16-16 16s-16-7.175781-16-16h-16c0 17.648438 14.351562 32 32 32zm0 0"/><path d="m160 368h16v16h-16zm0 0"/><path d="m160 400h16v16h-16zm0 0"/><path d="m464 120h-35.503906c-11.03125 0-20.609375 7.480469-23.28125 18.175781l-26.023438 104.082031-19.3125-7.730468c-1.894531-.757813-3.855468-1.296875-5.832031-1.71875l32.191406-128.808594h53.761719c17.648438 0 32-14.351562 32-32s-14.351562-32-32-32h-35.503906c-11.03125 0-20.609375 7.480469-23.28125 18.175781l-43.773438 175.121094c-10.671875 2.871094-19.519531 10.542969-23.6875 21.238281l-23.5625 60.417969-2.191406-.722656v-194.230469c0-66.167969-53.832031-120-120-120s-120 53.832031-120 120v194.230469l-9.710938 3.242187c-22.898437 7.632813-38.289062 28.984375-38.289062 53.128906v125.398438h336v-.054688c13.03125-.296874 24.753906-8.5625 29.304688-20.832031l64.917968-175.296875c6.714844-18.136718-2.09375-37.976562-20.046875-45.167968l-16-6.402344 16.0625-64.246094h53.761719c17.648438 0 32-14.351562 32-32s-14.351562-32-32-32zm-67.273438-57.9375c.898438-3.566406 4.089844-6.0625 7.769532-6.0625h35.503906c8.824219 0 16 7.175781 16 16s-7.175781 16-16 16h-49.761719zm-316.390624 144.570312c-9.464844-3.21875-16.335938-12.097656-16.335938-22.632812 0-10.414062 6.710938-19.214844 16-22.527344v38.527344c0 2.238281.167969 4.433594.335938 6.632812zm87.648437-189.921874c8.648437 4.257812 37.183594 22.714843 39.726563 79.289062h-79.421876c2.511719-56.585938 30.824219-74.960938 39.695313-79.289062zm94.085937 95.289062c-9.375 20.640625-52.742187 40-94.070312 40s-84.695312-19.359375-94.070312-40zm-6.070312 88v-38.527344c9.289062 3.3125 16 12.113282 16 22.527344 0 10.535156-6.871094 19.414062-16.335938 22.632812.167969-2.199218.335938-4.394531.335938-6.632812zm0-55.191406v-2.703125c6.519531-4.699219 11.945312-9.90625 16-15.53125v25.632812c-4.671875-3.542969-10.054688-6.183593-16-7.398437zm-176-2.703125v2.703125c-5.945312 1.214844-11.328125 3.855468-16 7.390625v-25.632813c4.054688 5.632813 9.480469 10.839844 16 15.539063zm16 9.503906c20.855469 10.253906 47.089844 16.390625 72 16.390625s51.144531-6.136719 72-16.390625v48.390625c0 39.695312-32.296875 72-72 72s-72-32.304688-72-72zm72 136.390625c11.296875 0 22.0625-2.214844 32-6.113281v10.265625l-32 25.601562-32-25.601562v-10.265625c9.9375 3.898437 20.703125 6.113281 32 6.113281zm-41.601562 16.96875 28.34375 22.671875-37.832032 27.015625-10.742187-42.953125zm17.601562 50.007812 24-17.144531 24 17.144531v57.023438l-24 18-24-18zm37.257812-27.335937 28.34375-22.671875 15.335938 5.109375 2.175781 12.507813-8.023437 32.078124zm60.917969-11.816406 18.199219 6.0625 27.503906 158.113281h-17.152344zm-26.175781-25.59375v-16.574219c17.679688-11.558594 30.910156-29.304688 36.710938-50.136719 7.199218-.855469 13.777343-3.558593 19.289062-7.726562v93.101562zm53.097656-194.230469h-45.402344c-1.542968-37.824219-13.550781-61.414062-25.863281-75.59375 35.296875 10.59375 62.679688 39.472656 71.265625 75.59375zm-130.929687-75.59375c-12.320313 14.179688-24.328125 37.769531-25.863281 75.59375h-45.402344c8.585937-36.121094 35.96875-65 71.265625-75.59375zm-74.167969 195.386719c5.511719 4.167969 12.089844 6.871093 19.289062 7.726562 5.789063 20.839844 19.03125 38.578125 36.710938 50.136719v16.574219l-56 18.664062zm-48 154.808593c0-17.25 10.992188-32.496093 27.351562-37.953124l47.601563-15.863282 16.136719 64.558594 20.910156-14.945312v53.601562l40 30 40-30v-53.601562l20.910156 14.9375 4.960938-19.855469 20.617187 118.519531h-166.488281v-72h-16v72h-56zm304 109.398438h-16l-26.382812-152.359375 15.03125 5.007813c16.359374 5.457031 27.351562 20.703124 27.351562 37.953124zm30.304688-10.449219c-2.234376 6.015625-7.9375 10.042969-14.304688 10.335938v-109.285157c0-21.410156-12.136719-40.578124-30.855469-49.976562l14.472657-37.121094 87.175781 33.527344zm64.917968-175.285156-2.871094 7.757813-86.917968-33.429688 3.214844-8.242188c2.925781-7.503906 10.023437-12.351562 18.078124-12.351562 2.480469 0 4.898438.464844 7.203126 1.390625l50.300781 20.121094c9.847656 3.9375 14.671875 14.808593 10.992187 24.753906zm48.777344-126.265625h-49.761719l6.488281-25.9375c.898438-3.566406 4.089844-6.0625 7.769532-6.0625h35.503906c8.824219 0 16 7.175781 16 16s-7.175781 16-16 16zm0 0"/></svg>
