<svg id="chipping-green" viewBox="-122 0 512 512" xmlns="http://www.w3.org/2000/svg"><path d="m224.929688 390.347656c-24.5-11.1875-56.664063-17.347656-90.566407-17.347656-33.898437 0-66.0625 6.160156-90.5625 17.347656-5.007812 2.289063-9.605469 4.753906-13.800781 7.375v-208.976562l126.824219-64.789063c5.019531-2.5625 8.175781-7.722656 8.175781-13.355469 0-5.636718-3.15625-10.796874-8.175781-13.359374l-126.824219-64.789063v-17.453125c0-8.285156-6.714844-15-15-15s-15 6.714844-15 15c0 0 .015625 428.277344.0195312 428.414062.4531248 20.363282 15.9531248 38.53125 43.7773438 51.238282 24.503906 11.1875 56.667969 17.347656 90.566406 17.347656 33.902344 0 66.066407-6.160156 90.566407-17.347656 28.246093-12.898438 43.800781-31.417969 43.800781-52.152344s-15.554688-39.257812-43.800781-52.152344zm-90.566407 12.652344c63.710938 0 104.367188 23.394531 104.367188 39.5 0 1.308594-.273438 2.667969-.800781 4.058594-23.070313-17.796875-61.441407-28.558594-103.566407-28.558594-42.136719 0-80.503906 10.757812-103.5625 28.554688-.527343-1.382813-.796875-2.738282-.800781-4.042969v-.023438c.019531-16.105469 40.671875-39.488281 104.363281-39.488281zm-17.335937-292.398438-87.027344 44.457032v-88.917969zm-62.535156 355.953126c18.292968-11.363282 48.300781-18.554688 79.871093-18.554688 31.558594 0 61.566407 7.191406 79.863281 18.558594-18.191406 8.71875-45.710937 15.441406-79.863281 15.441406-34.152343 0-61.679687-6.726562-79.871093-15.445312zm0 0"/></svg>
