<svg id="credit-card" enable-background="new 0 0 512 512" viewBox="0 0 512 512" xmlns="http://www.w3.org/2000/svg"><path d="m498.409 175.706-162.126-162.124c-8.752-8.751-20.423-13.571-32.865-13.571-12.441 0-24.113 4.818-32.865 13.569l-256.982 256.983c-8.751 8.752-13.571 20.422-13.571 32.864s4.82 24.114 13.571 32.864l19.992 19.992c.002.001.003.003.005.005s.004.004.006.006l134.36 134.36h-18.604c-5.89 0-10.666 4.775-10.666 10.666 0 5.89 4.776 10.666 10.666 10.666h59.189c.014 0 .027.001.041.001s.027-.001.041-.001l154.053.002c5.89 0 10.666-4.776 10.666-10.666 0-5.891-4.776-10.666-10.666-10.666l-113.464-.002 249.22-249.22c18.12-18.122 18.12-47.608-.001-65.728zm-15.084 50.644-256.984 256.984c-4.713 4.712-11.013 7.31-17.742 7.32h-.081c-6.727-.011-13.025-2.608-17.736-7.32l-134.587-134.588 246.795-246.797c4.165-4.165 4.165-10.919 0-15.084-4.166-4.165-10.918-4.165-15.085.001l-246.795 246.797-12.456-12.456c-4.721-4.721-7.321-11.035-7.321-17.779s2.6-13.059 7.322-17.781l256.982-256.982c4.722-4.721 11.037-7.321 17.781-7.321s13.059 2.6 17.781 7.322l57.703 57.702-246.798 246.8c-4.165 4.164-4.165 10.918 0 15.085 2.083 2.082 4.813 3.123 7.542 3.123s5.459-1.042 7.542-3.124l246.798-246.799 89.339 89.336c9.803 9.804 9.802 25.757 0 35.561z"/><path d="m262.801 308.064c-4.165-4.165-10.917-4.164-15.085 0l-83.934 83.933c-4.165 4.165-4.165 10.918 0 15.085 2.083 2.083 4.813 3.124 7.542 3.124s5.459-1.042 7.542-3.124l83.934-83.933c4.166-4.167 4.166-10.92.001-15.085z"/><path d="m228.375 387.741-34.425 34.425c-4.165 4.165-4.165 10.919 0 15.085 2.083 2.082 4.813 3.124 7.542 3.124 2.731 0 5.459-1.042 7.542-3.124l34.425-34.425c4.165-4.165 4.165-10.919 0-15.085s-10.916-4.166-15.084 0z"/><path d="m260.054 356.065-4.525 4.524c-4.166 4.165-4.166 10.918-.001 15.085 2.082 2.083 4.813 3.125 7.542 3.125s5.459-1.042 7.541-3.125l4.525-4.524c4.166-4.165 4.166-10.918.001-15.084-4.163-4.165-10.918-4.166-15.083-.001z"/><path d="m407.073 163.793c-2-2-4.713-3.124-7.542-3.124s-5.541 1.124-7.542 3.124l-45.255 45.254c-2 2.001-3.124 4.713-3.124 7.542s1.124 5.542 3.124 7.542l30.17 30.167c2.083 2.083 4.813 3.124 7.542 3.124 2.731 0 5.459-1.042 7.542-3.124l45.253-45.252c4.165-4.165 4.165-10.919 0-15.084zm-22.628 67.88-15.085-15.084 30.17-30.169 15.084 15.085z"/><path d="m320.339 80.186c2.731 0 5.461-1.042 7.543-3.126l4.525-4.527c4.164-4.166 4.163-10.92-.003-15.084-4.165-4.164-10.92-4.163-15.084.003l-4.525 4.527c-4.164 4.166-4.163 10.92.003 15.084 2.083 2.083 4.811 3.123 7.541 3.123z"/><path d="m107.215 358.057-4.525 4.525c-4.165 4.164-4.165 10.918 0 15.085 2.083 2.082 4.813 3.123 7.542 3.123s5.459-1.041 7.542-3.123l4.525-4.525c4.165-4.166 4.165-10.92 0-15.085-4.166-4.166-10.918-4.166-15.084 0z"/></svg>
