<svg id="golf-cart" viewBox="0 0 496 496" xmlns="http://www.w3.org/2000/svg"><path d="m368 384c-22.054688 0-40 17.945312-40 40s17.945312 40 40 40 40-17.945312 40-40-17.945312-40-40-40zm0 64c-13.230469 0-24-10.769531-24-24s10.769531-24 24-24 24 10.769531 24 24-10.769531 24-24 24zm0 0"/><path d="m104 376c-22.054688 0-40 17.945312-40 40s17.945312 40 40 40 40-17.945312 40-40-17.945312-40-40-40zm0 64c-13.230469 0-24-10.769531-24-24s10.769531-24 24-24 24 10.769531 24 24-10.769531 24-24 24zm0 0"/><path d="m472 280h-8v-8c0-19.3125-13.769531-35.472656-32-39.191406v-168.808594h24v-8c0-30.878906-25.121094-56-56-56h-272c-30.878906 0-56 25.121094-56 56v8h14.863281l-26.933593 202c-35.066407 11.878906-59.929688 45.3125-59.929688 83.382812v66.617188c0 13.230469 10.769531 24 24 24h12.199219c9.921875 27.921875 36.519531 48 67.800781 48s57.878906-20.078125 67.800781-48h126.054688c7.304687 32.015625 35.953125 56 70.144531 56s62.839844-23.984375 70.144531-56h17.855469c22.054688 0 40-17.945312 40-40v-96c0-13.230469-10.769531-24-24-24zm8 24v24h-91.3125l-24.175781 24.175781c-19.839844.960938-37.558594 9.945313-50.023438 23.824219h-111.382812l10.253906-30.769531c9.808594-29.445313 37.265625-49.230469 68.304687-49.230469h190.335938c4.40625 0 8 3.59375 8 8zm-94.839844 50.152344 10.152344-10.152344h84.6875v32h-58.488281c-9.511719-10.601562-22.085938-18.335938-36.351563-21.847656zm-218.601562 21.847656-17.871094-89.367188 39.3125-39.3125 17.375 17.375c4.714844 4.703126 10.984375 7.304688 17.65625 7.304688 13.769531 0 24.96875-11.199219 24.96875-24.96875 0-6.671875-2.601562-12.941406-7.3125-17.65625l-46.0625-46.0625c-4.714844-4.710938-10.984375-7.3125-17.65625-7.3125-13.769531 0-24.96875 11.199219-24.96875 24.96875 0 6.671875 2.601562 12.941406 7.3125 17.65625l17.375 17.375-31.777344 31.777344-2.351562-11.777344h-22.558594l-10.800781 1.519531 25.800781-193.519531h249v168h-32v-64h-24c-22.054688 0-40 17.945312-40 40v72h-6.335938c-37.9375 0-71.488281 24.183594-83.488281 60.167969l-11.945312 35.832031zm4.066406-168.6875c-1.6875-1.695312-2.625-3.945312-2.625-6.34375 0-4.945312 4.023438-8.96875 8.96875-8.96875 2.398438 0 4.648438.9375 6.34375 2.625l46.0625 46.0625c1.6875 1.695312 2.625 3.945312 2.625 6.34375 0 4.945312-4.023438 8.96875-8.96875 8.96875-2.398438 0-4.648438-.9375-6.34375-2.625zm133.375 72.6875v-72c0-13.230469 10.769531-24 24-24h8v96zm144-8v8h-96v-32h72c13.230469 0 24 10.769531 24 24zm-32-40h-16v-168h16zm-288-216h272c19.320312 0 35.480469 13.769531 39.191406 32h-350.382812c3.710937-18.230469 19.871094-32 39.191406-32zm-9.136719 48-26.109375 195.847656-16.160156 2.28125 26.414062-198.128906zm-94.863281 360c-4.40625 0-8-3.59375-8-8v-66.617188c0-35.597656 26.574219-66.238281 61.824219-71.277343l42.742187-6.105469h8.875l17.230469 86.144531c-11.960937-8.847656-26.6875-14.144531-42.671875-14.144531-39.695312 0-72 32.304688-72 72 0 2.703125.175781 5.367188.472656 8zm80 48c-30.878906 0-56-25.121094-56-56s25.121094-56 56-56 56 25.121094 56 56-25.121094 56-56 56zm71.527344-48c.296875-2.632812.472656-5.296875.472656-8 0-8.425781-1.527344-16.480469-4.199219-24h131.800781c-4.816406 9.65625-7.601562 20.496094-7.601562 32zm192.472656 56c-30.878906 0-56-25.121094-56-56s25.121094-56 56-56 56 25.121094 56 56-25.121094 56-56 56zm88-56h-16c0-11.503906-2.785156-22.34375-7.601562-32h47.601562v8c0 13.230469-10.769531 24-24 24zm0 0"/></svg>