<svg id="locker-room" enable-background="new 0 0 511.999 511.999" viewBox="0 0 511.999 511.999" xmlns="http://www.w3.org/2000/svg"><path d="m505.567 396.473-233.894-170.802v-35.004c0-8.656-7.018-15.673-15.673-15.673-15.452 0-28.022-12.662-28.022-28.227 0-15.564 12.571-28.227 28.022-28.227 15.452 0 28.022 12.662 28.022 28.227 0 8.656 7.018 15.673 15.673 15.673 8.656 0 15.673-7.018 15.673-15.673 0-32.848-26.633-59.573-59.369-59.573-32.735 0-59.369 26.724-59.369 59.573 0 27.407 18.54 50.551 43.695 57.467v21.436l-233.894 170.803c-12.205 8.915-5.876 28.331 9.243 28.331h480.65c15.116.001 21.453-19.414 9.243-28.331zm-255.742-65.384h12.349v23.528h-12.349zm-186.112 62.369 176.612-128.97v35.255h-6.174c-8.656 0-15.673 7.018-15.673 15.673v54.874c0 8.656 7.018 15.673 15.673 15.673h43.696c8.656 0 15.673-7.018 15.673-15.673v-54.874c0-8.656-7.018-15.673-15.673-15.673h-6.174v-35.255l176.612 128.97z"/></svg>
