<svg id="parking" clip-rule="evenodd" fill-rule="evenodd" stroke-linejoin="round" stroke-miterlimit="2" viewBox="0 0 64 64" xmlns="http://www.w3.org/2000/svg"><path d="m32 0c-17.661 0-32 14.339-32 32s14.339 32 32 32 32-14.339 32-32-14.339-32-32-32zm0 4c15.454 0 28 12.546 28 28s-12.546 28-28 28-28-12.546-28-28 12.546-28 28-28z"/><path d="m26 22v24c0 1.104.896 2 2 2s2-.896 2-2v-10h4c4.389 0 8-3.611 8-8s-3.611-8-8-8h-6c-1.105 0-2 .895-2 2zm12 6c0 2.194-1.806 4-4 4h-4v-8h4c2.194 0 4 1.806 4 4z"/></svg>