<svg id="pitching-green" enable-background="new 0 0 512 512" viewBox="0 0 512 512" xmlns="http://www.w3.org/2000/svg"><path d="m306.663 321.654c-5.192-.279-10.115 3.75-10.471 9.183-.356 5.423 3.75 10.115 9.183 10.471 117.01 7.721 186.933 40.288 186.933 67.308 0 32.596-97.048 68.923-236.308 68.923s-236.308-36.327-236.308-68.923c0-27.375 74.259-61.058 194.24-67.76 5.433-.298 9.586-4.942 9.279-10.375-.298-5.423-5.106-9.538-10.375-9.279-105.942 5.904-212.836 35.231-212.836 87.413 0 57.558 131.894 88.615 256 88.615s256-31.058 256-88.615c0-50.701-103.125-80.211-205.337-86.961z"/><path d="m369.529 75.346-78.769-49.231c-4.615-2.904-10.692-1.49-13.568 3.125-2.884 4.615-1.481 10.692 3.125 13.568l65.413 40.884-65.413 40.885c-4.606 2.875-6.01 8.952-3.125 13.567 1.865 2.991 5.077 4.625 8.356 4.625 1.779 0 3.586-.481 5.212-1.5l78.769-49.231c2.875-1.798 4.625-4.952 4.625-8.346s-1.75-6.548-4.625-8.346z"/><path d="m276.904 399.409h-12.149v-374.794c0-5.442-4.404-9.846-9.846-9.846s-9.846 4.404-9.846 9.846v374.793h-8.755c-5.442 0-9.846 4.404-9.846 9.846s4.404 9.846 9.846 9.846h40.596c5.442 0 9.846-4.404 9.846-9.846 0-5.441-4.404-9.845-9.846-9.845z"/></svg>
