<svg id="push-cart" viewBox="-16 0 496 496" xmlns="http://www.w3.org/2000/svg"><path d="m447.882812 83.527344-72.75-33.070313c-3.539062-1.609375-7.464843-2.457031-11.671874-2.457031-15.152344 0-27.472657 12.320312-27.472657 27.472656 0 10.75 6.320313 20.558594 16.101563 25l13.371094 6.078125-40.664063 103.25c-16.59375 4.871094-28.808594 20.054688-28.808594 38.199219 0 13.015625 6.34375 24.488281 16 31.792969v76.40625c-7.738281 2.753906-14.890625 6.738281-21.160156 11.800781h-19.046875c5.078125-6.703125 8.207031-14.960938 8.207031-24v-144c0-13.128906-6.449219-24.703125-16.25-32h.25v-16c0-13.230469-10.769531-24-24-24h-11.058593l8-16h83.058593v-8c0-22.054688-17.945312-40-40-40h-46.25l-9.304687 37.214844-13.390625 26.785156h-15.960938l26.664063-80h82.242187v-8c0-22.054688-17.945312-40-40-40h-46.25l-9.464843 37.839844-28.492188 85.480468-20.136719-53.703124-9.410156-37.617188h-46.246094c-22.058593 0-40 17.945312-40 40v8h82.453125l18 48h-4.453125c-13.234375 0-24 10.769531-24 24v16h.246094c-9.800781 7.296875-16.246094 18.871094-16.246094 32v40.808594c-18.234375 3.71875-32 19.871094-32 39.191406v64c0 10.167969 3.933594 19.367188 10.214844 26.433594l-20.65625 18.078125c-9.917969-4.167969-20.703125-5.542969-31.632813-3.625-23.542968 4.144531-42.214843 23.632812-45.40625 47.410156-2.207031 16.503906 2.855469 33 13.917969 45.238281 10.65625 11.792969 25.730469 18.464844 41.585938 18.464844.601562 0 1.199219-.007812 1.808593-.03125 28.230469-.90625 51.960938-23.648438 54.015626-51.777344.4375-5.925781-.046876-11.777344-1.425782-17.449218l12.539063-10.742188h141.511719c-.296876 2.632812-.472657 5.296875-.472657 8 0 39.703125 32.296875 72 72 72s72-32.296875 72-72c0-31.28125-20.082031-57.886719-48-67.800781v-76.40625c9.65625-7.3125 16-18.785157 16-31.792969 0-7.839844-2.351562-15.113281-6.265625-21.296875l39.503906-100.269531 15.617188 7.101562c3.535156 1.617188 7.464844 2.464844 11.671875 2.464844 15.152344 0 27.472656-12.320312 27.472656-27.472656 0-10.742188-6.320312-20.558594-16.105469-25zm-201.648437-3.527344h33.753906c10.429688 0 19.328125 6.6875 22.632813 16h-60.386719zm89.753906 352c-4.417969 0-8-3.585938-8-8s3.582031-8 8-8c4.414063 0 8 3.585938 8 8s-3.585937 8-8 8zm-8-63.359375v32.832031c-6.777343 2.414063-12.113281 7.75-14.527343 14.527344h-32.832032c3.527344-24.472656 22.886719-43.832031 47.359375-47.359375zm-192-24.640625v-39.527344c33.320313 3.703125 59.824219 30.207032 63.527344 63.527344h-39.527344c-13.234375 0-24-10.769531-24-24zm79.589844 24c-3.824219-42.144531-37.445313-75.777344-79.589844-79.59375v-32.804688c42.144531-3.824218 75.773438-37.449218 79.589844-79.59375h16.410156v192h-16.410156zm48.410156-24c0 10.414062-6.714843 19.214844-16 22.527344v-189.054688c9.285157 3.3125 16 12.113282 16 22.527344zm-33.753906-328h33.753906c10.429688 0 19.328125 6.6875 22.632813 16h-60.386719zm-148.878906 48c3.304687-9.3125 12.199219-16 22.632812-16h33.75l4 16zm70.632812 88c0-4.414062 3.582031-8 8-8h80c4.414063 0 8 3.585938 8 8v8.808594c-2.585937-.527344-5.265625-.808594-8-.808594h-80c-2.738281 0-5.417969.28125-8 .808594zm8 24h39.527344c-3.703125 33.320312-30.207031 59.824219-63.527344 63.527344v-39.527344c0-13.230469 10.765625-24 24-24zm-56 104c0-10.414062 6.710938-19.214844 16-22.527344v86.527344c0 9.039062 3.128907 17.296875 8.207031 24h-.207031c-13.234375 0-24-10.769531-24-24zm-8.113281 163.023438c-1.472656 20.082031-18.414062 36.3125-38.574219 36.960937-11.769531.191406-23.105469-4.433594-31-13.175781-7.90625-8.753906-11.519531-20.550782-9.9375-32.394532 2.273438-16.933593 15.558594-30.828124 32.3125-33.765624 5.039063-.886719 10.023438-.777344 14.839844.144531l-23.152344 20.253906c-5.320312 4.648437-8.375 11.378906-8.375 18.449219 0 13.511718 10.992188 24.503906 24.503907 24.503906h1.382812c5.855469 0 11.527344-2.105469 15.953125-5.902344l21.941406-18.808594c.027344 1.246094.203125 2.472657.105469 3.734376zm21.152344-43.023438-53.609375 45.953125c-1.542969 1.320313-3.503907 2.046875-5.542969 2.046875h-1.382812c-4.679688 0-8.503907-3.824219-8.503907-8.503906 0-2.457032 1.054688-4.785156 2.902344-6.398438l56.105469-49.097656h169.167968c-3.304687 4.929688-5.953124 10.3125-7.976562 16zm163.601562 32h32.832032c2.414062 6.777344 7.75 12.113281 14.527343 14.527344v32.832031c-24.472656-3.527344-43.832031-22.886719-47.359375-47.359375zm63.359375 47.359375v-32.832031c6.773438-2.414063 12.109375-7.75 14.527344-14.527344h32.832031c-3.527344 24.472656-22.886718 43.832031-47.359375 47.359375zm47.359375-63.359375h-32.832031c-2.417969-6.777344-7.753906-12.113281-14.527344-14.527344v-32.832031c24.472657 3.527344 43.832031 22.886719 47.359375 47.359375zm-47.359375-63.527344c-2.632812-.296875-5.296875-.472656-8-.472656s-5.367187.175781-8 .472656v-65.28125c2.582031.527344 5.261719.808594 8 .808594 2.734375 0 5.414063-.28125 8-.808594zm-8-80.472656c-13.234375 0-24-10.769531-24-24s10.765625-24 24-24c13.230469 0 24 10.769531 24 24s-10.769531 24-24 24zm21.40625-57.671875c-4.464843-2.847656-9.527343-4.785156-14.960937-5.679687l37.609375-95.472657 14.585937 6.632813zm78.808594-94.328125c-1.632813 0-3.265625-.351562-4.742187-1.023438l-72.761719-33.074218c-4.070313-1.855469-6.710938-5.949219-6.710938-10.429688 0-6.320312 5.152344-11.472656 11.78125-11.472656 1.632813 0 3.265625.351562 4.746094 1.023438l72.757813 33.074218c4.082031 1.855469 6.722656 5.949219 6.722656 10.4375-.007813 6.3125-5.160156 11.464844-11.792969 11.464844zm0 0"/></svg>
