<svg id="putting-green" enable-background="new 0 0 777.727 777.727" viewBox="0 0 777.727 777.727" xmlns="http://www.w3.org/2000/svg"><path d="m679.175 362.82-222.472-59.388v-46.731c0-10.304-6.766-18.58-16.355-20.932l-248.718-61.58v-19.39c17.119-4.949 30.806-14.441 41.839-28.559 11.026-14.036 16.729-30.019 16.729-47.868 0-21.743-7.602-40.322-23.196-55.575-15.592-15.171-34.228-22.797-56.288-22.797-21.67 0-40.403 7.464-55.899 22.798-15.31 15.09-22.822 33.832-22.822 55.575 0 17.849 5.33 33.832 16.356 47.868 11.026 14.117 25.102 23.609 41.45 28.559v35.698 338.886 206.48h-46.018c-11.788 0-20.916 9.168-20.916 20.932 0 11.766 9.127 20.932 20.916 20.932h134.63c11.789 0 21.297-9.166 21.297-20.932 0-11.764-9.509-20.932-21.297-20.932h-46.78v-191.634l222.86-79.508v34.236c0 7.951 2.994 13.793 9.509 17.85 3.749 2.352 7.603 3.406 11.407 3.406 3.043 0 6.085-.729 8.746-2.596l239.207-115.286c8.43-4.057 12.154-11.359 11.407-20.932-.77-9.817-6.051-16.065-15.592-18.58zm-534.317-258.241c-14.263-14.685-14.068-38.051 0-52.086 14.068-14.117 37.272-14.117 52.103 0 14.831 14.036 15.018 37.483 0 52.086-14.645 14.279-38.221 14.279-52.103 0zm269.632 315.683-222.86 79.428v-281.77l222.86 55.169zm42.213 45.189v-118.208l157.062 42.188z"/></svg>
