<svg id="rental-club" enable-background="new 0 0 244.463 244.463" viewBox="0 0 244.463 244.463" xmlns="http://www.w3.org/2000/svg"><path d="m150.013 197.991c-4.553-3.543-10.646-4.694-16.718-3.153l-27.26 6.913v-126.691c2.297-2.06 3.751-5.041 3.751-8.369l-.001-55.44c0-6.213-5.037-11.25-11.25-11.25s-11.25 5.037-11.25 11.25l.001 55.44c0 3.327 1.453 6.308 3.749 8.367v161.904c0 .259.013.515.039.767.384 3.782 3.578 6.733 7.461 6.733l36.143.001c12.407 0 22.5-10.094 22.5-22.501v-8.541c0-6.263-2.612-11.887-7.165-15.43zm-7.835 23.971c0 4.136-3.364 7.501-7.5 7.501l-28.643-.001v-12.236l30.947-7.849c1.575-.4 2.932-.239 3.819.452.888.691 1.377 1.966 1.377 3.592z"/></svg>
